{"accessors":[{"name":"W_rfel_1_positions","componentType":5126,"count":20,"min":[-98.97575378417969,-100,-101.02424621582031],"max":[101.02424621582031,100,98.97575378417969],"type":"VEC3","bufferView":0,"byteOffset":0},{"name":"W_rfel_1_texcoords","componentType":5126,"count":20,"min":[0,0],"max":[1,1],"type":"VEC2","bufferView":1,"byteOffset":0},{"name":"W_rfel_1_0_indices","componentType":5123,"count":36,"min":[0],"max":[19],"type":"SCALAR","bufferView":2,"byteOffset":0}],"asset":{"generator":"obj2gltf","version":"2.0"},"buffers":[{"name":"input","byteLength":472,"uri":"data:application/octet-stream;base64,"}],"bufferViews":[{"name":"bufferView_0","buffer":0,"byteLength":240,"byteOffset":0,"byteStride":12,"target":34962},{"name":"bufferView_1","buffer":0,"byteLength":160,"byteOffset":240,"byteStride":8,"target":34962},{"name":"bufferView_2","buffer":0,"byteLength":72,"byteOffset":400,"target":34963}],"materials":[{"name":"Mat","pbrMetallicRoughness":{"baseColorFactor":[0.5,0.5,0.5,1],"metallicFactor":0,"roughnessFactor":1},"emissiveFactor":[0,0,0],"alphaMode":"OPAQUE","doubleSided":false}],"meshes":[{"name":"W_rfel_1","primitives":[{"attributes":{"POSITION":0,"TEXCOORD_0":1},"indices":2,"material":0,"mode":4}]}],"nodes":[{"name":"W_rfel","mesh":0}],"scene":0,"scenes":[{"nodes":[0]}]}
