{"accessors":{"accessor_0":{"bufferView":"bufferView_0","byteOffset":0,"byteStride":0,"componentType":5126,"count":20,"min":[-98.97575378417969,-100,-101.02424621582031],"max":[101.02424621582031,100,98.97575378417969],"type":"VEC3"},"accessor_1":{"bufferView":"bufferView_0","byteOffset":240,"byteStride":0,"componentType":5126,"count":20,"min":[0,0],"max":[1,1],"type":"VEC2"},"accessor_2":{"bufferView":"bufferView_1","byteOffset":0,"byteStride":0,"componentType":5123,"count":36,"min":[0],"max":[19],"type":"SCALAR"}},"asset":{"generator":"obj2gltf","profile":{"api":"WebGL","version":"1.0"},"version":"1.0","premultipliedAlpha":true},"buffers":{"buffer":{"byteLength":472,"uri":"data:application/octet-stream;base64,","type":"arraybuffer"}},"bufferViews":{"bufferView_0":{"buffer":"buffer","byteLength":400,"byteOffset":0,"target":34962},"bufferView_1":{"buffer":"buffer","byteLength":72,"byteOffset":400,"target":34963}},"extensionsUsed":[],"images":{},"materials":{"Mat":{"technique":"technique0","values":{"ambient":[0,0,0,1],"diffuse":[0,0,0,1],"emission":[0.5,0.5,0.5,1],"specular":[0,0,0,1],"shininess":0,"transparency":1}}},"meshes":{"W_rfel_1":{"name":"W_rfel_1","primitives":[{"attributes":{"POSITION":"accessor_0","TEXCOORD_0":"accessor_1"},"indices":"accessor_2","material":"Mat","mode":4}]}},"nodes":{"W_rfel":{"name":"W_rfel","meshes":["W_rfel_1"],"children":[],"matrix":[1,0,0,0,0,1,0,0,0,0,1,0,0,0,0,1]}},"samplers":{},"scene":"scene","scenes":{"scene":{"nodes":["W_rfel"]}},"textures":{},"animations":{},"cameras":{},"programs":{"program0":{"attributes":["a_position","a_texcoord_0"],"fragmentShader":"fragmentShader0","vertexShader":"vertexShader0"}},"shaders":{"vertexShader0":{"type":35633,"uri":"data:text/plain;base64,"},"fragmentShader0":{"type":35632,"uri":"data:text/plain;base64,"}},"skins":{},"techniques":{"technique0":{"attributes":{"a_position":"position","a_texcoord_0":"texcoord_0"},"parameters":{"modelViewMatrix":{"semantic":"MODELVIEW","type":35676},"projectionMatrix":{"semantic":"PROJECTION","type":35676},"ambient":{"type":35666},"diffuse":{"type":35666},"emission":{"type":35666},"specular":{"type":35666},"shininess":{"type":5126},"transparency":{"type":5126},"position":{"semantic":"POSITION","type":35665},"texcoord_0":{"semantic":"TEXCOORD_0","type":5126}},"program":"program0","states":{"enable":[2884,2929]},"uniforms":{"u_modelViewMatrix":"modelViewMatrix","u_projectionMatrix":"projectionMatrix","u_ambient":"ambient","u_diffuse":"diffuse","u_emission":"emission","u_specular":"specular","u_shininess":"shininess","u_transparency":"transparency"}}}}
